{"title":"Jingle.All.the.Way.2.2014.HDRiP.XViD.AC3-H34LTH","uid":11609590,"size":1711150574,"categoryP":"video","categoryS":"movies","magnet":"?xt=urn:btih:c93b26313fd45f46e3fadbf655518e9d692ed22f&amp;dn=Jingle.All.the.Way.2.2014.HDRiP.XViD.AC3-H34LTH&amp;tr=udp%3A%2F%2Ftracker.openbittorrent.com%3A80&amp;tr=udp%3A%2F%2Fopen.demonii.com%3A1337&amp;tr=udp%3A%2F%2Ftracker.coppersurfer.tk%3A6969&amp;tr=udp%3A%2F%2Fexodus.desync.com%3A6969","seeders":2,"leechers":1,"uploader":"xxxlavalxxx","files":-1,"time":1417394116,"description":"[img]http://extraimago.com/images/2014/12/01/eD5T9yKq.jpg[/img]\n &lt;a href=&quot;\nhttp://www.imdb.com/title/tt3486392/&quot; rel=&quot;nofollow&quot; target=&quot;_NEW&quot;&gt;\nhttp://www.imdb.com/title/tt3486392/&lt;/a&gt;\n\n\nLarry finds himself in an odd situation, once again. When the new mayor comes to town and threatens to take away Larry's favorite holiday, Christmas. He sets out to bring back the holidays, redneck style.\n\nDirector: Alex Zamm\nWriters: Stephen Mazur, William Robertson (contributing writer)\nStars: Larry the Cable Guy, Kennedi Clements, Brian Stepanek\nGenres: Comedy, Family\nCountry: USA\nLanguage: English\n\n\nFormat                                   : AVI\nFormat/Info                              : Audio Video Interleave\nFile size                                : 1.56 GiB\nDuration                                 : 1h 33mn\nOverall bit rate                         : 2 386 Kbps\nWriting application                      : VirtualDubMod 1.5.10.2 (build 2540/release)\nWriting library                          : VirtualDubMod build 2540/release\n\nVideo\nID                                       : 0\nFormat                                   : MPEG-4 Visual\nFormat profile                           : Advanced Simple@L5\nFormat settings, BVOP                    : 2\nFormat settings, QPel                    : No\nFormat settings, GMC                     : No warppoints\nFormat settings, Matrix                  : Default (H.263)\nCodec ID                                 : XVID\nCodec ID/Hint                            : XviD\nDuration                                 : 1h 33mn\nBit rate                                 : 2 056 Kbps\nWidth                                    : 720 pixels\nHeight                                   : 400 pixels\nDisplay aspect ratio                     : 16:9\nFrame rate                               : 23.976 fps\nColor space                              : YUV\nChroma subsampling                       : 4:2:0\nBit depth                                : 8 bits\nScan type                                : Progressive\nCompression mode                         : Lossy\nBits/(Pixel*Frame)                       : 0.298\nStream size                              : 1.34 GiB (86%)\nWriting library                          : XviD 64\n\nAudio\nID                                       : 1\nFormat                                   : AC-3\nFormat/Info                              : Audio Coding 3\nMode extension                           : CM (complete main)\nFormat settings, Endianness              : Big\nCodec ID                                 : 2000\nDuration                                 : 1h 33mn\nBit rate mode                            : Constant\nBit rate                                 : 320 Kbps\nChannel(s)                               : 6 channels\nChannel positions                        : Front: L C R, Side: L R, LFE\nSampling rate                            : 48.0 KHz\nBit depth                                : 16 bits\nCompression mode                         : Lossy\nStream size                              : 214 MiB (13%)\nAlignment                                : Split accross interleaves\nInterleave, duration                     : 42 ms (1.00 video frame)\nInterleave, preload duration             : 500 ms\n\nSource &lt;----&gt; 720p WEB-DL (RESPECT)\n\n\nscreens\n &lt;a href=&quot;\nhttp://extraimago.com/images/2014/12/01/Cw4Kp4Zg.png&quot; rel=&quot;nofollow&quot; target=&quot;_NEW&quot;&gt;\nhttp://extraimago.com/images/2014/12/01/Cw4Kp4Zg.png&lt;/a&gt; &lt;a href=&quot;\nhttp://extraimago.com/images/2014/12/01/gFcdJXOw.png&quot; rel=&quot;nofollow&quot; target=&quot;_NEW&quot;&gt;\nhttp://extraimago.com/images/2014/12/01/gFcdJXOw.png&lt;/a&gt; &lt;a href=&quot;\nhttp://extraimago.com/images/2014/12/01/hhhzywLw.png&quot; rel=&quot;nofollow&quot; target=&quot;_NEW&quot;&gt;\nhttp://extraimago.com/images/2014/12/01/hhhzywLw.png&lt;/a&gt; &lt;a href=&quot;\nhttp://extraimago.com/images/2014/12/01/UvfXuqbR.png&quot; rel=&quot;nofollow&quot; target=&quot;_NEW&quot;&gt;\nhttp://extraimago.com/images/2014/12/01/UvfXuqbR.png&lt;/a&gt;","torrent":{"xt":"urn:btih:c93b26313fd45f46e3fadbf655518e9d692ed22f","amp;dn":"Jingle.All.the.Way.2.2014.HDRiP.XViD.AC3-H34LTH","amp;tr":["udp%3A%2F%2Ftracker.openbittorrent.com%3A80","udp%3A%2F%2Fopen.demonii.com%3A1337","udp%3A%2F%2Ftracker.coppersurfer.tk%3A6969","udp%3A%2F%2Fexodus.desync.com%3A6969"],"infoHash":"c93b26313fd45f46e3fadbf655518e9d692ed22f","infoHashBuffer":{"type":"Buffer","data":[201,59,38,49,63,212,95,70,227,250,219,246,85,81,142,157,105,46,210,47]},"announce":[],"urlList":[]}}